<svg width="24" height="24" viewBox="0 0 24 24" fill="none" xmlns="http://www.w3.org/2000/svg">
<path fill-rule="evenodd" clip-rule="evenodd" d="M0 6C0 2.68629 2.63413 0 5.8835 0H17.6505C20.8998 0 23.534 2.68629 23.534 6V18C23.534 21.3137 20.8998 24 17.6505 24H5.8835C2.63413 24 0 21.3137 0 18V6ZM5.8835 2.4C3.93388 2.4 2.3534 4.01178 2.3534 6V18C2.3534 19.9882 3.93388 21.6 5.8835 21.6H17.6505C19.6001 21.6 21.1806 19.9882 21.1806 18V6C21.1806 4.01178 19.6001 2.4 17.6505 2.4H5.8835ZM12.599 7.55147C13.0586 8.0201 13.0586 8.7799 12.599 9.24853L11.0777 10.8H15.2971C15.947 10.8 16.4738 11.3373 16.4738 12C16.4738 12.6627 15.947 13.2 15.2971 13.2H11.0777L12.599 14.7515C13.0586 15.2201 13.0586 15.9799 12.599 16.4485C12.1395 16.9172 11.3945 16.9172 10.9349 16.4485L7.40484 12.8485C6.94531 12.3799 6.94531 11.6201 7.40484 11.1515L10.9349 7.55147C11.3945 7.08284 12.1395 7.08284 12.599 7.55147Z" fill="white"/>
</svg>
